<svg width="556" height="577" viewBox="0 0 556 577" fill="none" xmlns="http://www.w3.org/2000/svg">
  <path d="M49.9834 109.985C49.5202 109.219 49.1366 108.602 48.8325 108.133C48.5905 107.657 48.4312 107.077 48.3546 106.394C48.292 105.835 48.2984 105.331 48.374 104.883C48.5046 104.365 48.5386 103.826 48.476 103.267C48.3229 101.901 48.1181 100.635 47.8617 99.4684C47.6673 98.2953 47.428 97.0014 47.1437 95.5867C47.0608 95.4073 46.826 95.2764 46.4394 95.1939C46.0528 95.1115 45.6317 95.0014 45.176 94.8638C44.7134 94.6641 44.2714 94.3677 43.85 93.9747C43.4907 93.5747 43.2659 92.971 43.1754 92.1635C43.0919 91.4182 43.1776 90.7797 43.4325 90.248C43.7425 89.6472 44.0595 89.1086 44.3834 88.6321C44.7004 88.0934 44.9864 87.5583 45.2413 87.0266C45.5513 86.4258 45.6646 85.7528 45.5811 85.0074C45.5463 84.6969 45.4526 84.1413 45.3 83.3409C45.1404 82.4783 44.9774 81.5846 44.8109 80.6599C44.7065 79.7282 44.5781 78.8621 44.4255 78.0617C44.328 77.1921 44.2619 76.602 44.2271 76.2915L44.1854 75.9188C44.3712 75.332 44.5053 74.8453 44.5878 74.4587C44.7324 74.0651 44.8874 73.7648 45.0529 73.5575C45.2183 73.3503 45.4528 73.1983 45.7564 73.1014C46.0531 72.9423 46.4498 72.835 46.9467 72.7793C48.2511 72.6332 49.2416 72.7738 49.9184 73.2011C50.5952 73.6284 51.0961 74.1697 51.4211 74.8251C51.7391 75.4184 51.9605 75.991 52.0853 76.5431C52.21 77.0951 52.4001 77.3883 52.6555 77.4225L58.7059 70.8014L59.0785 70.7597C61.0924 69.0875 63.2687 67.7431 65.6075 66.7264C67.9394 65.6475 70.4407 64.9585 73.1115 64.6592C73.919 64.5687 74.8922 64.554 76.031 64.6151C77.232 64.6692 78.3572 64.889 79.4067 65.2746C80.5113 65.5911 81.447 66.0837 82.2137 66.7525C83.0426 67.4143 83.5196 68.3042 83.6449 69.4222C83.7841 70.6644 83.7715 71.9551 83.607 73.2943C83.4426 74.6334 83.154 75.9864 82.7411 77.3534C82.3834 78.6513 81.898 79.9321 81.2849 81.1957C80.7269 82.3903 80.0895 83.4365 79.3725 84.3344C79.1385 85.0524 77.3458 87.0142 73.9944 90.2198C70.643 93.4255 65.6434 98.1993 58.9958 104.541L104.029 102.326C104.657 102.318 105.503 102.287 106.565 102.23C107.684 102.105 108.75 102.08 109.764 102.155C110.841 102.223 111.784 102.495 112.592 102.97C113.393 103.384 113.852 104.118 113.971 105.174C114.033 105.733 113.992 106.209 113.848 106.603C113.758 106.927 113.603 107.228 113.383 107.504C113.217 107.711 112.99 107.925 112.7 108.147C112.472 108.361 112.252 108.637 112.038 108.975L108.87 109.33C107.614 109.345 106.293 109.336 104.905 109.303C103.58 109.263 102.003 109.219 100.174 109.173C98.4068 109.119 96.3293 109.1 93.9412 109.116C91.5532 109.132 88.7027 109.232 85.39 109.414C82.0772 109.597 78.2089 109.873 73.7851 110.243C69.4233 110.606 64.3543 111.111 58.578 111.758C58.5158 111.765 58.4331 111.868 58.3298 112.069C58.2885 112.262 58.2749 112.421 58.2888 112.545C58.5532 114.905 59.0005 117.213 59.6307 119.47C60.316 121.657 60.7839 123.869 61.0345 126.105C61.0832 126.54 61.0767 127.043 61.0152 127.616C61.0087 128.12 60.9091 128.634 60.7163 129.159C60.5166 129.622 60.2478 130.029 59.9099 130.382C59.5721 130.734 59.1236 130.941 58.5646 131.004C58.192 131.046 57.7502 131.032 57.2394 130.964C56.7216 130.833 56.1969 130.64 55.6652 130.386C55.1957 130.124 54.7537 129.827 54.3392 129.496C53.9248 129.165 53.6587 128.755 53.5409 128.265L49.9834 109.985ZM53.9186 88.6958C54.0926 90.2485 54.2872 91.7047 54.5024 93.0642C54.7176 94.4237 54.9778 95.9039 55.2829 97.5049L55.5624 97.4735C55.6246 97.4666 55.7729 97.3871 56.0074 97.235C56.2419 97.083 56.8213 96.6407 57.7455 95.9082C58.6627 95.1137 60.0696 93.9183 61.9662 92.3222C63.8558 90.664 66.5213 88.3528 69.9626 85.3887C70.6592 84.8704 71.3832 84.0346 72.1344 82.8813C72.8857 81.728 73.5644 80.4885 74.1705 79.1627C74.7767 77.837 75.2621 76.5562 75.6268 75.3204C75.9845 74.0225 76.1181 72.9699 76.0276 72.1624C75.958 71.5413 75.6127 71.2655 74.9916 71.3351C74.4326 71.3978 73.9357 71.4534 73.5009 71.5022C72.5692 71.6065 71.5307 71.8801 70.3854 72.3229C69.2401 72.7657 67.8811 73.5469 66.3085 74.6664C64.798 75.779 62.9911 77.3336 60.8879 79.3303C58.8467 81.3199 56.4679 83.9448 53.7516 87.2051L53.9186 88.6958Z"
        fill="currentColor"/>
  <path d="M113.111 71.4035C113.532 70.6647 113.918 70.1812 114.269 69.9531C114.676 69.6559 115.253 69.4656 115.998 69.3821C116.992 69.2707 117.955 69.4458 118.887 69.9074C119.881 70.362 120.5 71.1103 120.742 72.1523C121.185 73.8636 121.508 75.6198 121.71 77.4211C121.967 79.1532 122.165 80.9234 122.305 82.7316C122.5 84.4707 122.667 86.2443 122.807 88.0525C123.001 89.7916 123.258 91.5238 123.577 93.249C124.299 97.4447 125.162 101.782 126.167 106.26C127.234 110.732 128.005 115.079 128.478 119.303C128.617 120.545 128.473 121.505 128.046 122.181C127.618 122.858 126.69 123.277 125.262 123.437C124.082 123.569 123.136 123.266 122.424 122.528C121.713 121.79 121.139 120.88 120.703 119.797C120.329 118.706 120.049 117.606 119.861 116.495C119.667 115.322 119.532 114.393 119.455 113.71C119.399 113.213 119.223 112.195 118.924 110.657C118.681 109.049 118.379 107.196 118.019 105.098C117.713 102.931 117.366 100.674 116.977 98.328C116.581 95.9196 116.203 93.6665 115.842 91.5686C115.474 89.4086 115.141 87.5592 114.843 86.0203C114.6 84.4124 114.451 83.36 114.395 82.8631L113.111 71.4035Z"
        fill="currentColor"/>
  <path d="M142.284 102.756C142.207 101.507 142.036 100.269 141.773 99.0403C141.572 97.805 141.339 96.5732 141.076 95.3449C140.979 95.0413 140.83 94.5548 140.629 93.8855C140.491 93.2093 140.414 92.809 140.401 92.6848C140.394 92.6227 140.318 92.5054 140.172 92.333C140.02 92.0985 139.941 91.9502 139.934 91.8881L140.099 91.6808C140.265 91.4736 140.316 91.3735 140.254 91.3805L138.24 73.3992L137.867 73.441C137.219 74.3941 136.454 75.4232 135.572 76.5283C134.689 77.6334 133.565 78.2625 132.198 78.4156C131.204 78.527 130.203 78.2932 129.195 77.7144C128.249 77.1286 127.713 76.2767 127.588 75.1587L127.567 74.9724C127.56 74.9102 127.581 74.8136 127.629 74.6824C127.677 74.5512 127.725 74.4201 127.774 74.2889C127.815 74.0956 127.86 73.9333 127.908 73.8022L137.32 63.5026L136.745 58.3785C136.676 57.7573 136.996 57.2498 137.707 56.8557C138.41 56.3995 139.011 56.1436 139.508 56.0879C140.315 55.9974 141.085 56.1313 141.817 56.4896C142.542 56.7857 143.246 56.8955 143.929 56.8189C144.55 56.7493 145.088 56.5003 145.543 56.072C145.998 55.6437 146.457 55.2464 146.919 54.8801C149.119 53.1871 151.265 51.8462 153.355 50.8573C155.507 49.8614 157.95 49.2104 160.683 48.9042C161.863 48.7719 163.275 48.7396 164.917 48.8071C166.615 48.8055 168.241 49.0007 169.794 49.3927C171.41 49.7777 172.801 50.408 173.968 51.2835C175.135 52.1589 175.806 53.3731 175.98 54.9258C176.293 57.7209 176.033 60.4543 175.201 63.1261C174.368 65.7979 173.069 68.239 171.304 70.4492C168.974 73.226 166.771 75.7369 164.696 77.9819C162.675 80.1579 160.379 82.3963 157.807 84.697C157.752 84.7661 157.7 84.8662 157.652 84.9974C157.597 85.0664 157.542 85.1355 157.486 85.2046L149.149 92.4593C148.866 92.7426 148.763 93.2258 148.839 93.909C148.909 94.5301 148.954 94.9339 148.975 95.1202C149.177 96.9214 149.472 98.7122 149.86 100.493C150.303 102.204 150.75 103.946 151.2 105.72C151.651 107.493 152.07 109.27 152.458 111.05C152.908 112.824 153.234 114.611 153.436 116.412C153.547 117.406 153.4 118.334 152.993 119.197C152.642 119.992 151.876 120.455 150.696 120.587C149.827 120.684 148.857 120.447 147.787 119.875C146.771 119.234 146.149 118.455 145.921 117.537L142.284 102.756ZM147.722 83.9402L163.228 69.0901C163.91 68.4476 164.576 67.6498 165.224 66.6967C165.927 65.6746 166.533 64.6318 167.043 63.5684C167.608 62.436 168.045 61.2864 168.355 60.1197C168.664 58.953 168.763 57.8727 168.652 56.879C168.582 56.2578 168.251 55.8233 167.657 55.5754C167.118 55.2584 166.5 55.0761 165.803 55.0284C165.099 54.9186 164.374 54.9055 163.629 54.989C162.946 55.0655 162.387 55.1282 161.952 55.1769C159.157 55.49 156.652 56.431 154.438 57.9998C152.279 59.4995 150.224 61.082 148.272 62.7471C148.162 62.8853 147.934 63.0995 147.59 63.3897C147.238 63.6177 146.893 63.9079 146.555 64.2603C146.21 64.5505 145.896 64.8372 145.614 65.1204C145.393 65.3967 145.293 65.628 145.314 65.8143L147.298 83.5161L147.722 83.9402Z"
        fill="currentColor"/>
  <path d="M34.0995 206.251C34.349 205.964 34.8723 205.112 35.6695 203.694C36.4667 202.277 37.4868 200.556 38.7298 198.533C40.0588 196.488 41.5022 194.258 43.0601 191.841C44.6713 189.456 46.3787 187.094 48.1824 184.755C50.0393 182.448 51.9373 180.313 53.8764 178.35C55.9014 176.367 57.89 174.801 59.8421 173.653C61.0448 172.411 62.4222 171.9 63.9742 172.12C65.5589 172.286 67.5024 173.003 69.8046 174.27C71.2425 175.154 72.2385 176.279 72.7924 177.646C73.3464 179.013 73.626 180.468 73.6315 182.012C73.7229 183.535 73.6423 185.099 73.3899 186.704C73.1374 188.31 72.9134 189.749 72.718 191.023L72.4727 191.422C72.1913 192.716 71.4763 194.477 70.3276 196.706C69.265 198.914 68.0407 201.206 66.6547 203.582C65.3547 205.937 64.0504 208.18 62.742 210.31C61.4336 212.441 60.436 214.065 59.7491 215.183C58.7678 216.781 57.3772 218.567 55.5773 220.543C53.8101 222.464 51.8421 224.116 49.6732 225.498C47.5576 226.912 45.3289 227.854 42.9873 228.323C40.6456 228.792 38.4363 228.388 36.3593 227.112C34.6018 226.033 33.3087 224.615 32.4801 222.86C31.7048 221.136 31.263 219.288 31.1548 217.315C31.1326 215.321 31.3889 213.351 31.9236 211.406C32.4583 209.46 33.1836 207.742 34.0995 206.251ZM38.561 216.362C38.3077 217.014 38.2244 217.806 38.3112 218.74C38.484 219.652 38.9165 220.322 39.6089 220.747L40.248 221.139C43.7277 220.489 46.6152 219.072 48.9103 216.888C51.2382 214.65 53.3016 212.067 55.1007 209.138C55.5259 208.445 56.1535 207.364 56.9834 205.893C57.8133 204.423 58.6881 202.759 59.6077 200.904C60.6134 199.028 61.6148 197.039 62.612 194.938C63.6093 192.836 64.4715 190.835 65.1987 188.935C65.9586 186.981 66.518 185.234 66.877 183.694C67.236 182.155 67.2697 180.965 66.9783 180.126C66.8923 180.147 66.747 180.204 66.5424 180.298C66.391 180.425 66.299 180.516 66.2662 180.569C64.2974 181.267 62.1243 182.536 59.747 184.376C57.3697 186.217 54.9273 188.641 52.42 191.648C49.9986 194.635 47.5552 198.195 45.0898 202.329C42.7104 206.442 40.5341 211.12 38.561 216.362Z"
        fill="currentColor"/>
  <path d="M63.6386 238.586C64.0714 237.165 65.053 233.477 66.5833 227.522C68.1463 221.514 70.4706 212.893 73.5564 201.659C73.6218 201.553 73.6994 201.307 73.7891 200.922C73.9648 200.517 74.0854 200.261 74.1508 200.154C74.6498 199.581 75.3581 199.502 76.2757 199.919C77.2259 200.283 77.8977 200.622 78.291 200.937C79.3646 201.816 79.9877 202.712 80.1605 203.625C80.3865 204.571 80.3424 205.717 80.0283 207.065L75.2902 225.169L75.3645 225.764C76.6578 225.092 77.7829 224.096 78.7399 222.777C79.6968 221.457 80.6477 220.208 81.5925 219.028C82.6233 217.827 83.7321 216.858 84.9189 216.12C86.1056 215.382 87.5754 215.257 89.3283 215.747C89.6479 215.944 89.945 216.236 90.2196 216.625C90.527 216.96 90.7587 217.359 90.9147 217.822C91.1567 218.264 91.3126 218.726 91.3827 219.209C91.4854 219.639 91.4919 220.047 91.4022 220.432L87.2277 236.901L87.3705 238.639C88.1723 237.812 89.3872 236.431 91.0151 234.497C92.6963 232.595 94.3999 230.598 96.126 228.504C97.9381 226.39 99.5824 224.429 101.059 222.622C102.568 220.762 103.605 219.492 104.169 218.811C104.235 218.705 104.349 218.519 104.513 218.252C104.73 218.019 104.871 217.849 104.936 217.742C105.657 217.525 106.455 217.538 107.332 217.783C108.241 217.975 108.956 218.304 109.476 218.77C109.656 218.954 109.841 219.251 110.029 219.66C110.304 220.049 110.503 220.501 110.626 221.017C110.782 221.479 110.842 221.92 110.806 222.337C110.822 222.788 110.749 223.146 110.585 223.412L85.9153 253.369C85.6658 253.655 85.3159 253.807 84.8655 253.824C84.4478 253.788 83.9769 253.718 83.4527 253.616C83.0145 253.494 82.566 253.329 82.1072 253.12C81.7344 252.891 81.4415 252.711 81.2285 252.58C80.2447 251.316 79.6006 249.857 79.2962 248.203C79.0777 246.528 79.0046 244.797 79.0767 243.007C79.2021 241.251 79.3972 239.5 79.6618 237.755C80.0124 235.99 80.2116 234.352 80.2594 232.842L79.989 232.565C79.3872 232.709 78.5606 233.338 77.5093 234.453C76.5113 235.6 75.4907 236.844 74.4478 238.184C73.4049 239.524 72.4703 240.747 71.6442 241.853C70.8508 242.906 70.4213 243.486 70.3559 243.592C69.7915 244.272 68.9257 244.547 67.7587 244.417C66.6449 244.32 65.7745 244.005 65.1476 243.474C64.4674 242.909 64.0143 242.154 63.7883 241.209C63.6483 240.242 63.5984 239.368 63.6386 238.586Z"
        fill="currentColor"/>
  <path d="M100.964 247.318C101.213 247.031 101.736 246.179 102.534 244.762C103.331 243.344 104.351 241.624 105.594 239.6C106.923 237.556 108.366 235.325 109.924 232.908C111.535 230.524 113.243 228.162 115.046 225.822C116.903 223.515 118.801 221.38 120.741 219.417C122.766 217.434 124.754 215.868 126.706 214.72C127.909 213.478 129.286 212.967 130.838 213.187C132.423 213.354 134.367 214.071 136.669 215.338C138.107 216.221 139.103 217.346 139.657 218.713C140.21 220.08 140.49 221.536 140.496 223.079C140.587 224.602 140.506 226.167 140.254 227.772C140.002 229.377 139.778 230.816 139.582 232.09L139.337 232.489C139.055 233.784 138.34 235.545 137.192 237.773C136.129 239.981 134.905 242.273 133.519 244.649C132.219 247.005 130.915 249.247 129.606 251.378C128.298 253.508 127.3 255.132 126.613 256.251C125.632 257.848 124.241 259.635 122.441 261.61C120.674 263.532 118.706 265.184 116.537 266.565C114.422 267.98 112.193 268.921 109.851 269.39C107.51 269.859 105.3 269.456 103.223 268.18C101.466 267.1 100.173 265.683 99.3442 263.927C98.5689 262.204 98.1271 260.356 98.019 258.382C97.9968 256.388 98.253 254.418 98.7877 252.473C99.3224 250.528 100.048 248.809 100.964 247.318ZM105.425 257.43C105.172 258.081 105.089 258.873 105.175 259.807C105.348 260.72 105.781 261.389 106.473 261.814L107.112 262.207C110.592 261.557 113.479 260.14 115.774 257.955C118.102 255.718 120.166 253.134 121.965 250.205C122.39 249.513 123.018 248.431 123.848 246.961C124.677 245.49 125.552 243.827 126.472 241.971C127.477 240.095 128.479 238.106 129.476 236.005C130.473 233.904 131.336 231.903 132.063 230.002C132.823 228.048 133.382 226.302 133.741 224.762C134.1 223.222 134.134 222.033 133.842 221.193C133.756 221.214 133.611 221.271 133.407 221.366C133.255 221.493 133.163 221.583 133.13 221.636C131.162 222.334 128.988 223.603 126.611 225.444C124.234 227.284 121.791 229.708 119.284 232.716C116.863 235.703 114.419 239.263 111.954 243.396C109.575 247.509 107.398 252.187 105.425 257.43Z"
        fill="currentColor"/>
  <path d="M136.901 364.65C136.736 364.74 136.367 364.978 135.794 365.362C135.246 365.662 134.63 366.035 133.947 366.479C133.264 366.924 132.636 367.339 132.063 367.723C131.515 368.023 131.158 368.218 130.994 368.308L128.526 369.658C127.868 370.018 127.168 370.365 126.425 370.7C125.652 370.98 124.904 371.176 124.181 371.286C123.483 371.312 122.807 371.183 122.153 370.899C121.499 370.616 120.932 370.035 120.453 369.158C120.033 368.39 119.922 367.667 120.121 366.988C120.345 366.225 120.538 365.407 120.702 364.534C120.746 364.224 120.823 363.648 120.932 362.805C121.096 361.932 121.244 361.031 121.378 360.103C121.566 359.146 121.73 358.272 121.869 357.484C122.032 356.611 122.121 355.993 122.136 355.628C122.001 354.99 122.035 354.401 122.239 353.862C122.468 353.239 122.542 352.593 122.461 351.924L123.675 333.629C123.735 332.956 123.681 332.273 123.516 331.579C123.376 330.801 123.265 330.078 123.184 329.41C123.159 328.712 123.248 328.093 123.452 327.554C123.626 326.96 124.096 326.454 124.864 326.034C126.071 325.374 127.27 325.288 128.463 325.775C129.71 326.233 130.689 326.98 131.398 328.017C131.513 328.096 131.591 328.303 131.631 328.638C131.696 328.887 131.704 329.096 131.654 329.266L130.197 351.22C130.253 351.973 130.186 352.829 129.998 353.787C129.779 354.69 129.576 355.62 129.387 356.578C129.169 357.481 129.02 358.382 128.941 359.28C128.917 360.148 129.07 360.883 129.4 361.486C132.964 359.537 136.506 357.742 140.026 356.102C143.516 354.408 147.148 352.777 150.922 351.212C151.267 351.451 151.663 351.59 152.112 351.63C152.586 351.584 153.047 351.581 153.496 351.621C153.915 351.605 154.31 351.675 154.679 351.829C155.103 351.953 155.465 352.289 155.765 352.838C156.964 355.031 156.44 356.743 154.192 357.972C153.424 358.392 152.719 358.6 152.075 358.596C151.486 358.561 150.833 358.669 150.115 358.919C147.791 359.62 145.543 360.458 143.369 361.433C141.195 362.408 139.039 363.481 136.901 364.65Z"
        fill="currentColor"/>
  <path d="M166.836 364.093C165.67 361.311 164.677 358.649 163.857 356.106C163.006 353.508 162.107 350.758 161.161 347.856L160.801 347.198L139.321 279.981C138.976 278.958 138.932 278.163 139.191 277.594C139.42 276.97 140 276.403 140.933 275.894L141.097 275.804C142.439 275.782 143.352 275.888 143.836 276.122C144.345 276.271 144.899 276.894 145.499 277.991C145.859 278.649 146.151 279.379 146.377 280.182C146.602 280.985 146.84 281.746 147.09 282.464C147.125 282.658 147.225 283.102 147.391 283.795C147.611 284.458 147.834 285.191 148.059 285.994C148.284 286.797 148.48 287.545 148.645 288.238C148.865 288.901 148.993 289.33 149.028 289.524L149.208 289.853L165.374 341.492C166.59 344.887 167.751 348.313 168.857 351.768C169.988 355.139 171.189 358.507 172.46 361.873C172.655 362.621 172.554 363.282 172.155 363.856C171.842 364.455 171.383 364.919 170.78 365.249C170.177 365.579 169.481 365.674 168.693 365.535C167.935 365.452 167.361 365.053 166.971 364.34L166.836 364.093Z"
        fill="currentColor"/>
  <path d="M189.581 336.908C189.371 336.525 189.271 336.081 189.28 335.577C189.345 335.043 189.451 334.522 189.6 334.013C189.804 333.474 190.023 332.962 190.257 332.478C190.491 331.994 190.727 331.58 190.966 331.235L194.051 305.613C194.09 305.164 194.035 304.803 193.885 304.529L193.75 304.282L166.489 307.971C166.38 308.031 166.155 308.011 165.816 307.912C165.501 307.728 165.145 307.531 164.745 307.322C164.401 307.083 164.071 306.871 163.757 306.687C163.413 306.448 163.21 306.274 163.15 306.164C162.886 305.81 162.843 305.406 163.022 304.952C163.226 304.413 163.502 303.941 163.851 303.537C164.224 303.048 164.643 302.641 165.106 302.316C165.54 301.936 165.839 301.702 166.003 301.612C168.832 301.703 171.61 301.573 174.338 301.221C177.121 300.839 179.889 300.429 182.642 299.992C185.42 299.47 188.197 298.948 190.975 298.427C193.753 297.905 196.578 297.535 199.451 297.317C200.105 297.601 200.604 297.862 200.948 298.101C201.263 298.285 201.54 298.597 201.78 299.036C202.38 300.132 202.506 301.274 202.158 302.462C201.865 303.62 201.657 304.802 201.533 306.009C201.237 308.593 200.993 311.078 200.801 313.462C200.634 315.762 200.439 318.076 200.217 320.406C199.965 322.681 199.604 325.016 199.133 327.411C198.716 329.775 198.123 332.273 197.353 334.902C197.333 335.127 197.139 335.553 196.771 336.182C196.457 336.781 196.221 337.195 196.061 337.425C195.682 337.775 195.189 338.044 194.581 338.235C193.972 338.425 193.346 338.518 192.703 338.514C192.059 338.509 191.453 338.378 190.884 338.119C190.315 337.86 189.881 337.457 189.581 336.908Z"
        fill="currentColor"/>
  <path d="M68.4291 513.735C68.249 513.787 67.8372 513.939 67.1939 514.189C66.5934 514.362 65.9114 514.591 65.148 514.876C64.3846 515.161 63.6813 515.429 63.038 515.68C62.4374 515.853 62.0471 515.965 61.8669 516.017L59.1644 516.796C58.4437 517.004 57.6844 517.19 56.8864 517.355C56.071 517.46 55.2984 517.488 54.5686 517.438C53.8815 517.311 53.2499 517.037 52.6737 516.618C52.0975 516.199 51.6709 515.509 51.394 514.548C51.1516 513.707 51.2015 512.977 51.5434 512.358C51.9281 511.662 52.2955 510.906 52.6456 510.089C52.7565 509.797 52.957 509.251 53.247 508.452C53.5971 507.636 53.9386 506.79 54.2713 505.913C54.6642 505.019 55.0142 504.203 55.3216 503.464C55.6717 502.647 55.8935 502.063 55.9871 501.711C55.9942 501.058 56.156 500.492 56.4725 500.01C56.8318 499.451 57.045 498.837 57.1121 498.167L62.2866 480.577C62.4911 479.933 62.5882 479.254 62.578 478.542C62.6105 477.752 62.6603 477.022 62.7274 476.352C62.8546 475.665 63.0764 475.081 63.393 474.599C63.6922 474.058 64.2622 473.666 65.103 473.423C66.4242 473.043 67.6136 473.22 68.6713 473.956C69.789 474.675 70.581 475.617 71.0474 476.784C71.142 476.886 71.1726 477.105 71.139 477.44C71.1482 477.698 71.1101 477.904 71.0246 478.058L64.8152 499.166C64.7054 499.914 64.454 500.734 64.0612 501.628C63.651 502.461 63.2496 503.325 62.8567 504.219C62.4466 505.053 62.1052 505.899 61.8324 506.758C61.6198 507.6 61.6086 508.351 61.7991 509.012C65.7026 507.887 69.5508 506.908 73.3434 506.075C77.1188 505.182 81.0188 504.383 85.0436 503.678C85.3276 503.986 85.6844 504.209 86.1139 504.345C86.5863 504.404 87.0372 504.502 87.4668 504.638C87.879 504.714 88.2486 504.868 88.5753 505.099C88.9622 505.313 89.2421 505.72 89.4152 506.321C90.1076 508.723 89.2227 510.279 86.7604 510.988C85.9197 511.231 85.1857 511.28 84.5587 511.135C83.9917 510.973 83.3306 510.936 82.5753 511.024C80.1547 511.201 77.7774 511.529 75.4434 512.006C73.1094 512.484 70.7713 513.06 68.4291 513.735Z"
        fill="currentColor"/>
  <path d="M108.817 509.997C108.662 509.456 108.57 509.027 108.544 508.71C108.56 508.315 108.825 507.881 109.339 507.407C109.382 507.33 109.524 507.257 109.764 507.187C109.987 507.058 110.21 506.929 110.433 506.8C110.716 506.653 110.947 506.554 111.127 506.502C111.35 506.372 111.492 506.299 111.552 506.282C111.895 506.118 112.242 505.855 112.593 505.494C112.987 505.055 113.351 504.625 113.685 504.204C114.061 503.705 114.386 503.253 114.66 502.849C114.934 502.445 115.144 502.157 115.289 501.985C116.598 499.982 117.293 497.992 117.374 496.018C117.516 494.026 117.266 491.919 116.625 489.697C116.539 489.396 116.418 488.976 116.262 488.435C116.106 487.895 115.92 487.363 115.704 486.84C115.531 486.239 115.294 485.755 114.993 485.386C114.674 484.958 114.309 484.705 113.896 484.629C113.759 484.604 113.45 484.66 112.97 484.799C112.549 484.92 112.279 484.998 112.159 485.032C110.778 485.431 109.543 486.112 108.455 487.076C107.41 487.962 106.39 488.939 105.397 490.006C104.446 490.996 103.427 491.972 102.339 492.936C101.294 493.823 100.05 494.474 98.6089 494.89C97.6481 495.167 96.8108 495.083 96.0972 494.638C95.3663 494.133 94.871 493.43 94.6114 492.529C94.3344 491.569 94.5328 490.113 95.2065 488.163C95.8801 486.212 96.678 484.128 97.6 481.911C98.522 479.694 99.4227 477.516 100.302 475.376C101.164 473.176 101.683 471.368 101.86 469.951L101.14 470.159C99.7585 470.557 98.5838 471.221 97.6159 472.15C96.6306 473.019 95.7228 473.932 94.8922 474.886C94.0617 475.841 93.2225 476.766 92.3747 477.661C91.5696 478.478 90.6265 479.043 89.5456 479.355C88.7648 479.58 87.9022 479.633 86.9575 479.515C85.9956 479.337 85.3675 478.738 85.0732 477.717C84.8309 476.876 85.039 475.905 85.6974 474.805C86.3386 473.644 87.276 472.496 88.5096 471.36C89.7259 470.164 91.1096 468.984 92.6608 467.822C94.2721 466.642 95.8492 465.569 97.3923 464.604C98.9954 463.622 100.483 462.803 101.855 462.147C103.21 461.431 104.278 460.961 105.058 460.736C107.28 460.096 108.729 460.946 109.404 463.289L109.742 464.46C109.5 467.456 108.969 470.243 108.151 472.821C107.316 475.338 106.524 478.006 105.775 480.823L106.676 480.564C107.516 480.321 108.25 480.045 108.876 479.734C109.562 479.407 110.325 479.122 111.166 478.879C113.568 478.187 115.685 478.422 117.516 479.586C119.33 480.689 120.858 482.265 122.099 484.314C122.185 484.614 122.367 485.245 122.644 486.206C122.964 487.089 123.158 487.651 123.227 487.891C124.387 491.915 124.542 495.61 123.691 498.978C122.823 502.285 121.067 505.556 118.421 508.79C117.121 510.596 115.479 511.784 113.497 512.356C112.537 512.632 111.571 512.553 110.599 512.118C109.671 511.605 109.077 510.898 108.817 509.997Z"
        fill="currentColor"/>
  <path d="M154.448 524.141C155.024 523.482 155.767 523.011 156.678 522.728C157.678 522.439 158.507 522.583 159.166 523.158C159.589 523.529 159.954 524.013 160.26 524.613C160.614 525.253 160.858 525.924 160.994 526.623C161.13 527.323 161.11 528.011 160.934 528.687C160.799 529.316 160.482 529.869 159.982 530.346C159.313 530.922 158.507 531.132 157.566 530.974C156.626 530.815 155.896 530.51 155.379 530.058C154.531 529.318 153.937 528.383 153.595 527.255C153.341 526.12 153.626 525.082 154.448 524.141ZM167.314 509.985C168.042 508.962 169.015 508.608 170.232 508.925C171.45 509.241 172.435 509.729 173.188 510.387C173.376 510.551 173.485 510.854 173.515 511.295C173.633 511.73 173.665 512.215 173.613 512.75C173.648 513.279 173.617 513.791 173.517 514.285C173.458 514.731 173.368 515.025 173.244 515.167C172.857 515.99 172.151 516.37 171.128 516.306C170.146 516.195 169.373 515.893 168.808 515.399C168.149 514.824 167.584 513.998 167.113 512.922C166.642 511.847 166.709 510.868 167.314 509.985Z"
        fill="currentColor"/>
  <path d="M166.708 549.293C167.078 548.87 167.389 548.561 167.642 548.366C167.983 548.166 168.491 548.154 169.168 548.33C169.256 548.324 169.394 548.403 169.582 548.568C169.812 548.685 170.041 548.803 170.271 548.92C170.547 549.079 170.756 549.22 170.897 549.343C171.126 549.46 171.265 549.54 171.312 549.581C171.635 549.781 172.044 549.93 172.538 550.03C173.12 550.123 173.679 550.196 174.214 550.249C174.837 550.296 175.393 550.325 175.881 550.336C176.369 550.347 176.724 550.368 176.948 550.397C179.341 550.413 181.389 549.92 183.094 548.92C184.845 547.96 186.482 546.609 188.003 544.868C188.209 544.633 188.497 544.303 188.867 543.879C189.237 543.456 189.583 543.012 189.906 542.547C190.318 542.076 190.596 541.615 190.743 541.162C190.931 540.662 190.945 540.218 190.786 539.83C190.733 539.701 190.518 539.472 190.142 539.143C189.812 538.855 189.601 538.67 189.507 538.587C188.424 537.642 187.183 536.972 185.783 536.579C184.472 536.181 183.099 535.852 181.664 535.595C180.317 535.331 178.944 535.003 177.545 534.61C176.233 534.211 175.013 533.518 173.883 532.531C173.13 531.873 172.747 531.124 172.735 530.283C172.764 529.395 173.087 528.599 173.703 527.893C174.361 527.139 175.693 526.518 177.697 526.029C179.702 525.539 181.886 525.082 184.249 524.657C186.612 524.232 188.931 523.81 191.206 523.391C193.522 522.924 195.324 522.382 196.611 521.764L196.046 521.27C194.964 520.325 193.77 519.696 192.464 519.386C191.2 519.028 189.942 518.758 188.689 518.577C187.437 518.396 186.205 518.191 184.994 517.963C183.87 517.728 182.885 517.241 182.038 516.501C181.426 515.966 180.914 515.27 180.502 514.412C180.131 513.507 180.295 512.654 180.994 511.854C181.57 511.195 182.498 510.844 183.78 510.802C185.103 510.713 186.576 510.88 188.199 511.302C189.863 511.677 191.604 512.202 193.421 512.876C195.285 513.592 197.041 514.338 198.688 515.113C200.382 515.929 201.876 516.736 203.17 517.535C204.505 518.286 205.478 518.929 206.09 519.464C207.832 520.985 207.901 522.664 206.297 524.5L205.495 525.417C202.844 526.836 200.214 527.899 197.604 528.607C195.035 529.267 192.364 530.045 189.589 530.941L190.295 531.558C190.954 532.134 191.583 532.601 192.183 532.959C192.83 533.358 193.483 533.846 194.142 534.421C196.025 536.066 196.973 537.973 196.986 540.143C197.041 542.265 196.543 544.403 195.492 546.556C195.286 546.791 194.854 547.285 194.197 548.038C193.627 548.785 193.26 549.253 193.095 549.441C190.34 552.595 187.317 554.725 184.025 555.833C180.774 556.894 177.073 557.188 172.922 556.714C170.7 556.598 168.812 555.862 167.258 554.505C166.505 553.847 166.049 552.992 165.89 551.94C165.818 550.881 166.091 549.999 166.708 549.293Z"
        fill="currentColor"/>
  <path d="M30.4045 320.541C31.1503 320.083 32.0002 319.855 32.9543 319.856C33.9942 319.878 34.743 320.262 35.2006 321.008C35.4948 321.487 35.6987 322.059 35.8125 322.722C35.9589 323.439 35.9928 324.151 35.914 324.86C35.8353 325.568 35.6113 326.219 35.242 326.812C34.9259 327.372 34.4586 327.806 33.8399 328.112C33.0287 328.463 32.1976 328.423 31.3465 327.992C30.4954 327.561 29.8901 327.052 29.5306 326.466C28.9423 325.507 28.653 324.438 28.6627 323.259C28.7585 322.101 29.3391 321.194 30.4045 320.541ZM46.902 310.859C47.9021 310.099 48.936 310.051 50.0038 310.716C51.0716 311.38 51.8669 312.139 52.3899 312.991C52.5206 313.204 52.5345 313.526 52.4316 313.956C52.4146 314.406 52.3014 314.879 52.0919 315.374C51.9684 315.89 51.7855 316.368 51.5433 316.81C51.3545 317.22 51.1801 317.473 51.0203 317.571C50.4052 318.242 49.6188 318.394 48.6612 318.029C47.7569 317.63 47.1086 317.111 46.7164 316.472C46.2588 315.726 45.9653 314.77 45.8358 313.603C45.7063 312.436 46.0617 311.521 46.902 310.859Z"
        fill="currentColor"/>
  <path d="M26.5497 337.204C26.9759 336.943 27.6454 336.899 28.5582 337.072C29.5038 337.298 30.2447 337.43 30.781 337.468C32.9796 337.586 34.9857 337.748 36.7993 337.955C38.6662 338.13 40.6602 338.153 42.7813 338.025C43.67 337.919 44.6222 337.738 45.638 337.482C46.707 337.193 47.6919 337.065 48.5927 337.099C51.9064 336.166 54.9992 335.111 57.871 333.936C60.7428 332.761 63.6171 331.29 66.4938 329.525C69.6902 327.564 72.7661 325.347 75.7215 322.874C78.677 320.401 81.4218 317.763 83.956 314.962C84.4972 314.41 84.93 313.741 85.2546 312.956C85.5791 312.17 85.877 311.4 86.1482 310.647C86.4727 309.862 86.8033 309.146 87.1399 308.499C87.4765 307.853 87.9645 307.333 88.6037 306.941C89.1897 306.582 89.9125 306.505 90.7721 306.711C91.6317 306.916 92.2576 307.339 92.6498 307.978C93.2708 308.99 93.4965 310.135 93.3269 311.412C93.2106 312.657 92.8854 313.92 92.3514 315.201C91.8174 316.481 91.1648 317.688 90.3935 318.822C89.6755 319.922 89.0089 320.808 88.3939 321.478C87.3235 322.722 86.0976 323.95 84.7161 325.165C83.3674 326.432 81.9326 327.679 80.4119 328.905C78.9445 330.099 77.428 331.213 75.8625 332.246C74.3297 333.334 72.8605 334.345 71.4548 335.281C68.3117 337.209 65.0912 338.892 61.7932 340.329C58.5278 341.819 55.0501 342.963 51.3598 343.76C51.2533 343.826 50.8519 343.888 50.1558 343.949C49.5456 344.03 48.8392 344.134 48.0365 344.259C47.2338 344.385 46.4147 344.484 45.5793 344.557C44.7767 344.683 44.1398 344.78 43.6689 344.849C42.8868 344.889 41.6276 344.928 39.8915 344.967C38.2087 344.973 36.4338 344.889 34.5669 344.714C32.786 344.56 31.1056 344.271 29.5257 343.848C27.9991 343.391 26.9906 342.763 26.5003 341.964C26.3369 341.698 26.1511 341.335 25.9429 340.876C25.8206 340.438 25.725 339.983 25.6561 339.512C25.5871 339.042 25.6041 338.591 25.707 338.161C25.8426 337.785 26.1235 337.466 26.5497 337.204Z"
        fill="currentColor"/>
  <path d="M43.9044 391.832C44.4288 391.714 44.9244 391.583 45.3913 391.441C45.9157 391.322 46.4401 391.204 46.9646 391.086C45.6912 390.889 44.536 390.573 43.499 390.136C41.5403 389.312 40.985 387.892 41.8331 385.876C42.0512 385.357 42.3315 384.933 42.674 384.602C43.074 384.296 43.2967 383.847 43.342 383.256C43.5966 383.295 44.0242 383.407 44.6245 383.592C45.2491 383.719 45.619 383.807 45.7342 383.855L48.6723 385.091C49.2969 385.218 50.0488 385.365 50.9281 385.532C51.8892 385.665 52.8093 385.814 53.6886 385.981C53.1212 384.589 52.3734 383.224 51.4452 381.884C50.5746 380.569 49.9496 379.153 49.5701 377.638C49.1056 375.679 49.8888 374.381 51.9198 373.744C52.5019 373.65 53.0188 373.63 53.4705 373.684C54.0041 373.705 54.5407 373.558 55.0802 373.243C55.2046 373.431 55.3714 373.84 55.5809 374.47C55.8721 375.067 56.0511 375.448 56.1179 375.612C56.0936 375.669 56.1195 375.85 56.1954 376.153C56.2955 376.398 56.3714 376.701 56.4231 377.062C56.5566 377.39 56.6613 377.705 56.7372 378.008C56.8131 378.311 56.8798 378.475 56.9374 378.499C57.1469 379.129 57.4639 379.907 57.8887 380.832C58.3377 381.698 58.77 382.524 59.1856 383.309L65.4707 371.511C65.9979 370.58 66.4707 370.101 66.889 370.073C67.3074 370.046 67.9199 370.202 68.7264 370.541C68.8416 370.59 69.0312 370.703 69.295 370.882C69.6406 371.027 69.8711 371.124 69.9863 371.173C70.3018 371.712 70.4991 372.372 70.5782 373.151L69.2696 376.262C68.5668 377.932 67.8186 379.55 67.0248 381.115C66.2887 382.704 65.5404 384.321 64.78 385.968L77.7761 383.603C78.7765 383.481 79.4132 383.58 79.6862 383.898C80.0167 384.24 80.2792 384.825 80.4735 385.653C80.5403 385.817 80.5707 386.067 80.5647 386.403C80.6406 386.706 80.6953 386.899 80.7286 386.981C80.5531 387.721 80.1667 388.236 79.5696 388.527C79.324 388.628 78.7754 388.804 77.9235 389.055C77.0717 389.307 76.5352 389.455 76.3139 389.497C75.9289 389.606 75.556 389.687 75.1953 389.739C74.8921 389.814 74.5602 389.878 74.1994 389.93L77.7013 390.793C78.1137 391.102 78.4807 391.358 78.8021 391.561C79.1811 391.788 79.4783 392.049 79.6937 392.343C79.9333 392.579 80.0668 392.906 80.0942 393.325C80.1459 393.686 80.0384 394.183 79.7719 394.817L79.6628 395.076C78.9262 395.376 78.2214 395.52 77.5484 395.509C76.8996 395.439 76.222 395.357 75.5155 395.264C74.891 395.137 74.2543 395.038 73.6055 394.969C72.9567 394.899 72.2594 394.945 71.5136 395.106L64.8466 394.031L70.0665 405.075C70.0729 406.027 70.058 406.868 70.0219 407.599C69.9858 408.329 69.3493 408.875 68.1125 409.236C68.0549 409.212 67.9852 409.217 67.9033 409.25C67.2362 408.902 66.6752 408.462 66.2203 407.932C65.8472 407.368 65.515 406.788 65.2238 406.191C64.9325 405.593 64.6003 405.013 64.2272 404.449C63.8784 403.828 63.4355 403.269 62.8988 402.772L59.9092 397.548C59.6458 398.657 59.3536 399.755 59.0327 400.84C58.7693 401.95 58.4316 402.995 58.0197 403.974C57.5592 405.069 56.8092 405.804 55.7694 406.18C54.7539 406.499 53.7277 406.44 52.6907 406.004L52.4314 405.895L51.2936 403.281C51.9086 401.98 52.5069 400.638 53.0885 399.255C53.6943 397.815 54.1728 396.355 54.5239 394.876C53.3781 395.343 52.2035 395.798 51.0001 396.241C49.8543 396.708 48.6918 397.135 47.5126 397.52C46.3818 397.79 45.351 397.662 44.4201 397.135C43.5134 396.55 42.925 395.692 42.6547 394.561L42.5045 394.193L43.9044 391.832Z"
        fill="currentColor"/>
  <path d="M72.7317 418.807C72.8528 418.519 73.1498 418.136 73.6226 417.657C74.1196 417.12 74.5364 416.854 74.8729 416.86L122.075 426.748C122.191 426.797 122.438 426.934 122.817 427.162C123.278 427.356 123.566 427.477 123.681 427.525C123.742 428.025 123.839 428.439 123.972 428.767C124.163 429.118 124.314 429.486 124.423 429.871C124.556 430.199 124.596 430.588 124.542 431.04C124.569 431.458 124.437 432.013 124.147 432.705C123.856 433.396 123.256 433.856 122.346 434.083C121.437 434.311 120.641 434.349 119.959 434.198L76.7219 424.554L76.6355 424.518C75.2528 423.936 74.3416 423.282 73.9017 422.554C73.4619 421.827 72.9991 420.751 72.5136 419.326L72.7317 418.807Z"
        fill="currentColor"/>
  <path d="M133.172 429.382C133.697 429.263 134.192 429.133 134.659 428.99C135.184 428.872 135.708 428.753 136.232 428.635C134.959 428.438 133.804 428.122 132.767 427.686C130.808 426.862 130.253 425.442 131.101 423.425C131.319 422.907 131.599 422.482 131.942 422.152C132.342 421.845 132.565 421.396 132.61 420.805C132.865 420.845 133.292 420.957 133.892 421.141C134.517 421.268 134.887 421.356 135.002 421.405L137.94 422.641C138.565 422.768 139.317 422.915 140.196 423.081C141.157 423.214 142.077 423.364 142.956 423.53C142.389 422.139 141.641 420.773 140.713 419.434C139.843 418.118 139.218 416.703 138.838 415.187C138.373 413.229 139.157 411.931 141.188 411.293C141.77 411.199 142.287 411.179 142.738 411.234C143.272 411.255 143.809 411.108 144.348 410.792C144.472 410.98 144.639 411.389 144.849 412.02C145.14 412.617 145.319 412.997 145.386 413.161C145.362 413.219 145.387 413.399 145.463 413.702C145.563 413.948 145.639 414.251 145.691 414.611C145.824 414.939 145.929 415.254 146.005 415.557C146.081 415.86 146.148 416.024 146.205 416.048C146.415 416.679 146.732 417.456 147.157 418.381C147.606 419.248 148.038 420.074 148.454 420.859L154.739 409.06C155.266 408.129 155.739 407.65 156.157 407.623C156.575 407.595 157.188 407.751 157.994 408.09C158.11 408.139 158.299 408.253 158.563 408.431C158.909 408.577 159.139 408.674 159.254 408.722C159.57 409.262 159.767 409.921 159.846 410.7L158.537 413.811C157.835 415.482 157.086 417.099 156.293 418.664C155.557 420.253 154.808 421.871 154.048 423.517L167.044 421.152C168.044 421.031 168.681 421.129 168.954 421.447C169.285 421.79 169.547 422.375 169.741 423.202C169.808 423.366 169.839 423.616 169.833 423.953C169.909 424.256 169.963 424.448 169.997 424.53C169.821 425.27 169.435 425.785 168.837 426.077C168.592 426.177 168.043 426.353 167.191 426.605C166.34 426.857 165.803 427.004 165.582 427.047C165.197 427.156 164.824 427.236 164.463 427.288C164.16 427.364 163.828 427.428 163.467 427.479L166.969 428.342C167.382 428.651 167.749 428.907 168.07 429.11C168.449 429.337 168.746 429.598 168.962 429.892C169.201 430.128 169.335 430.456 169.362 430.874C169.414 431.235 169.306 431.732 169.04 432.366L168.931 432.625C168.194 432.926 167.489 433.07 166.816 433.058C166.167 432.988 165.49 432.907 164.783 432.813C164.159 432.686 163.522 432.588 162.873 432.518C162.225 432.449 161.527 432.494 160.782 432.655L154.114 431.58L159.334 442.624C159.341 443.576 159.326 444.417 159.29 445.148C159.254 445.879 158.617 446.425 157.38 446.786C157.323 446.762 157.253 446.766 157.171 446.799C156.504 446.451 155.943 446.012 155.488 445.481C155.115 444.918 154.783 444.337 154.492 443.74C154.2 443.143 153.868 442.562 153.495 441.999C153.146 441.377 152.703 440.818 152.167 440.321L149.177 435.097C148.914 436.207 148.622 437.304 148.301 438.39C148.037 439.499 147.7 440.544 147.288 441.523C146.827 442.618 146.077 443.353 145.037 443.73C144.022 444.048 142.996 443.99 141.959 443.553L141.699 443.444L140.562 440.83C141.176 439.529 141.775 438.187 142.356 436.805C142.962 435.364 143.441 433.904 143.792 432.425C142.646 432.892 141.471 433.347 140.268 433.79C139.122 434.258 137.96 434.684 136.78 435.069C135.65 435.34 134.619 435.211 133.688 434.684C132.781 434.099 132.193 433.241 131.923 432.111L131.772 431.742L133.172 429.382Z"
        fill="currentColor"/>
  <path d="M535 421.5H530V421.54L530.001 421.58L535 421.5ZM524.5 432.5L524.642 427.502L524.582 427.501L524.523 427.5L524.5 432.5ZM224 431.132L223.977 436.132L223.977 436.132L224 431.132ZM224 21.5003L219 21.5003V21.5003L224 21.5003ZM16.5 45L15.4098 40.1204L15.4098 40.1204L16.5 45ZM5.50003 57.0003L10.5 57.0003L10.5 57.0003L5.50003 57.0003ZM239.5 571L239.489 576H239.5V571ZM548.5 524.676L545.74 528.845L545.742 528.847L548.5 524.676ZM550.5 530.5L545.503 530.326L545.5 530.413V530.5H550.5ZM240.817 531.5L235.821 531.283L235.82 531.308L235.82 531.334L240.817 531.5ZM238.978 524L242.777 520.749L242.643 520.592L242.495 520.446L238.978 524ZM240.678 527.5L235.75 528.351L235.75 528.351L240.678 527.5ZM228 5.95494L228.724 10.9023L228.836 10.8859L228.947 10.8644L228 5.95494ZM5.5 560L0.5 560V560H5.5ZM500.995 363.263H495.995V363.303L495.996 363.343L500.995 363.263ZM493.129 371.5L493.271 366.502L493.256 366.502L493.242 366.501L493.129 371.5ZM313.352 165.435C310.998 166.879 310.261 169.958 311.705 172.312C313.15 174.666 316.228 175.403 318.582 173.958L313.352 165.435ZM346.392 129.055L342.14 126.425L342.14 126.425L346.392 129.055ZM360.502 120.748C363.121 119.875 364.537 117.043 363.664 114.424C362.791 111.804 359.959 110.388 357.339 111.261L360.502 120.748ZM317.649 120.021C315.048 119.092 312.187 120.448 311.258 123.048C310.33 125.649 311.685 128.51 314.285 129.439L317.649 120.021ZM326.743 133.268L323.296 136.89L326.743 133.268ZM338.339 149.935L333.764 151.953L338.339 149.935ZM343.245 165.715C345.865 166.589 348.697 165.173 349.57 162.553C350.443 159.933 349.027 157.102 346.408 156.228L343.245 165.715ZM419.925 167.437C417.194 167.846 415.312 170.392 415.722 173.123C416.131 175.854 418.677 177.736 421.408 177.326L419.925 167.437ZM437.781 157.616L434.113 154.218L434.113 154.218L437.781 157.616ZM466.137 133.278C467.893 131.146 467.588 127.995 465.456 126.239C463.324 124.484 460.173 124.789 458.418 126.92L466.137 133.278ZM433.657 131.994C433.221 129.267 430.657 127.41 427.93 127.846C425.203 128.283 423.347 130.847 423.783 133.574L433.657 131.994ZM440.798 153.701L444.671 150.539L444.671 150.539L440.798 153.701ZM440.95 153.888L444.823 150.726L444.823 150.726L440.95 153.888ZM457.357 176.854C459.827 178.088 462.83 177.087 464.065 174.617C465.3 172.148 464.299 169.144 461.829 167.909L457.357 176.854ZM295.106 291.992C292.592 293.135 291.48 296.099 292.623 298.613C293.766 301.127 296.73 302.239 299.244 301.096L295.106 291.992ZM304.073 287.073L299.732 284.593L299.732 284.593L304.073 287.073ZM312.089 272.383L307.862 269.713L307.862 269.713L312.089 272.383ZM321.611 279.864L317.084 281.987L317.084 281.988L321.611 279.864ZM321.634 279.914L326.161 277.791L326.161 277.791L321.634 279.914ZM328.346 292.48L332.727 290.07L328.346 292.48ZM331.254 294.381L334.853 297.852L334.853 297.852L331.254 294.381ZM338.786 281.108L334.575 278.412L334.575 278.412L338.786 281.108ZM349.152 269.735L350.046 274.655L350.046 274.655L349.152 269.735ZM355.938 277.826L360.178 275.176L360.178 275.176L355.938 277.826ZM364.663 285.694L369.316 287.522L369.316 287.522L364.663 285.694ZM378.682 267.051L376.825 262.408L376.825 262.408L378.682 267.051ZM383.082 267.834L386.944 264.658L386.944 264.658L383.082 267.834ZM394.193 285.209L389.864 287.71L389.864 287.71L394.193 285.209ZM399.19 295.202L403.136 292.132L403.136 292.132L399.19 295.202ZM403.067 293.71L407.799 295.326L407.799 295.326L403.067 293.71ZM415.819 267.163L418.363 271.467L418.363 271.467L415.819 267.163ZM426.856 271.04L422.213 272.897L422.213 272.897L426.856 271.04ZM441.77 295.425L438.235 298.961L438.235 298.961L441.77 295.425ZM447.177 284.501L451.535 286.952L451.535 286.952L447.177 284.501ZM454.858 265.037L450.858 262.037L450.858 262.037L454.858 265.037ZM464.254 272.681L468.53 270.089L468.53 270.089L464.254 272.681ZM474.119 294.576C476.739 295.449 479.571 294.033 480.444 291.414C481.317 288.794 479.901 285.962 477.282 285.089L474.119 294.576ZM485.204 405.452C487.965 405.452 490.204 403.214 490.204 400.452C490.204 397.691 487.965 395.452 485.204 395.452V405.452ZM486.324 410.882L488.344 415.456L488.344 415.456L486.324 410.882ZM485.974 404.092L482.438 407.628L482.438 407.628L485.974 404.092ZM486.464 395.452C483.702 395.452 481.464 397.691 481.464 400.452C481.464 403.214 483.702 405.452 486.464 405.452V395.452ZM410.889 402.848C408.733 404.573 408.383 407.72 410.108 409.876C411.833 412.032 414.98 412.382 417.136 410.657L410.889 402.848ZM422.063 405.002L421.672 400.018L421.672 400.018L422.063 405.002ZM445.023 404.827L445.164 409.825L445.023 404.827ZM453.011 406.468C454.246 408.938 457.249 409.939 459.719 408.704C462.189 407.47 463.19 404.466 461.955 401.996L453.011 406.468ZM273.361 404.722C272.24 407.245 273.376 410.2 275.899 411.321C278.423 412.443 281.378 411.307 282.499 408.783L273.361 404.722ZM299.98 404.862L300.05 409.862L299.98 404.862ZM370.052 404.722L370.927 399.8L370.927 399.8L370.052 404.722ZM381.536 409.965C384.006 411.199 387.009 410.198 388.244 407.728C389.479 405.259 388.478 402.255 386.008 401.02L381.536 409.965ZM237.502 10.4754C242.74 10.9994 515.935 35.4689 523.88 36.4617L525.12 26.5389C517.064 25.5321 243.261 1.00165 238.498 0.525114L237.502 10.4754ZM523.88 36.4617C527.902 36.9643 528.76 37.6022 529.027 37.9003C529.298 38.203 530 39.3414 530 44.0003H540C540 39.159 539.451 34.5472 536.473 31.2249C533.49 27.898 529.098 27.036 525.12 26.5389L523.88 36.4617ZM530 44.0003V421.5H540V44.0003H530ZM530.001 421.58C530.032 423.592 529.921 424.944 529.723 425.859C529.629 426.297 529.528 426.568 529.453 426.728C529.382 426.877 529.335 426.928 529.327 426.935C529.323 426.941 529.298 426.969 529.209 427.017C529.11 427.07 528.909 427.16 528.548 427.248C527.779 427.437 526.562 427.557 524.642 427.502L524.358 437.498C528.708 437.622 533.437 437.187 536.637 433.759C539.712 430.465 540.068 425.739 539.999 421.421L530.001 421.58ZM524.523 427.5L481.523 427.305L481.477 437.304L524.477 437.5L524.523 427.5ZM485.035 476.465C485.766 477.195 486.054 477.954 486.113 478.103C486.217 478.37 486.266 478.573 486.281 478.64C486.314 478.782 486.314 478.829 486.3 478.704C486.273 478.481 486.239 478.064 486.207 477.415C486.143 476.143 486.101 474.315 486.078 472.074C486.031 467.61 486.062 461.721 486.125 455.83C486.187 449.947 486.28 444.092 486.358 439.705C486.397 437.512 486.433 435.688 486.458 434.412C486.471 433.774 486.481 433.274 486.488 432.933C486.491 432.762 486.494 432.632 486.496 432.544C486.497 432.5 486.498 432.467 486.498 432.445C486.498 432.433 486.498 432.425 486.499 432.42C486.499 432.417 486.499 432.415 486.499 432.413C486.499 432.413 486.499 432.412 486.499 432.412C486.499 432.412 486.499 432.412 481.5 432.304C476.501 432.197 476.501 432.198 476.501 432.198C476.501 432.198 476.501 432.199 476.501 432.2C476.501 432.201 476.501 432.203 476.501 432.206C476.501 432.212 476.501 432.221 476.5 432.232C476.5 432.255 476.499 432.289 476.498 432.333C476.496 432.422 476.494 432.554 476.49 432.726C476.483 433.069 476.473 433.573 476.46 434.214C476.434 435.495 476.399 437.327 476.36 439.527C476.282 443.928 476.188 449.809 476.125 455.724C476.063 461.632 476.031 467.605 476.078 472.178C476.102 474.455 476.146 476.44 476.219 477.912C476.255 478.636 476.302 479.325 476.371 479.895C476.403 480.167 476.455 480.534 476.542 480.911C476.585 481.095 476.663 481.395 476.796 481.737C476.884 481.962 477.203 482.774 477.964 483.536L485.035 476.465ZM481.523 427.305L224.023 426.132L223.977 436.132L481.477 437.304L481.523 427.305ZM229 431.132L229 21.5003L219 21.5003L219 431.132L229 431.132ZM224.023 426.132C215.491 426.093 204.46 425.867 199.853 426.002L200.147 435.998C204.54 435.869 215.055 436.092 223.977 436.132L224.023 426.132ZM199.853 426.002C196.415 426.103 193.196 427.39 191.271 430.608C189.699 433.238 189.5 436.437 189.5 439H199.5C199.5 437.89 199.558 437.08 199.657 436.49C199.757 435.895 199.869 435.715 199.854 435.741C199.798 435.834 199.653 435.987 199.49 436.069C199.387 436.121 199.525 436.016 200.147 435.998L199.853 426.002ZM15.4098 40.1204C10.4209 41.235 6.41093 43.1004 3.76897 46.3398C1.08415 49.6317 0.500029 53.4992 0.500031 57.0003L10.5 57.0003C10.5 54.5011 10.9408 53.3683 11.5184 52.6601C12.1389 51.8993 13.6289 50.7648 17.5903 49.8797L15.4098 40.1204ZM239.5 576H540V566H239.5V576ZM540 576C540.676 576 542.486 576.061 543.67 576.03C545.059 575.993 546.863 575.847 548.646 575.199C550.548 574.508 552.431 573.239 553.754 571.084C555.02 569.02 555.5 566.585 555.5 564H545.5C545.5 564.695 545.434 565.163 545.365 565.458C545.298 565.746 545.231 565.852 545.23 565.854C545.229 565.856 545.237 565.843 545.255 565.823C545.273 565.803 545.293 565.785 545.311 565.771C545.349 565.742 545.339 565.761 545.229 565.801C544.949 565.903 544.409 566.007 543.408 566.033C542.932 566.046 542.424 566.04 541.842 566.028C541.296 566.018 540.628 566 540 566V576ZM551.26 520.507C545.639 516.786 529.117 505.843 513.889 495.72C506.274 490.657 498.987 485.803 493.55 482.159C490.83 480.336 488.581 478.822 486.988 477.738C486.189 477.195 485.569 476.769 485.141 476.47C484.925 476.319 484.777 476.214 484.688 476.149C484.43 475.96 484.726 476.155 485.035 476.465L477.964 483.536C478.33 483.902 478.787 484.222 478.79 484.224C478.962 484.349 479.175 484.5 479.412 484.666C479.892 485.002 480.554 485.456 481.363 486.006C482.986 487.11 485.258 488.64 487.983 490.466C493.436 494.121 500.735 498.983 508.352 504.047C523.589 514.177 540.118 525.123 545.74 528.845L551.26 520.507ZM555.5 564V530.5H545.5V564H555.5ZM235.82 531.334L234.503 570.834L244.497 571.167L245.814 531.667L235.82 531.334ZM235.179 527.251C235.457 527.576 235.557 527.746 235.602 527.837C235.639 527.912 235.698 528.047 235.75 528.351L245.605 526.649C245.174 524.154 244.165 522.371 242.777 520.749L235.179 527.251ZM235.75 528.351C235.837 528.854 235.89 529.702 235.821 531.283L245.812 531.717C245.891 529.89 245.873 528.204 245.605 526.649L235.75 528.351ZM545.742 528.847C545.827 528.903 545.833 528.916 545.796 528.881C545.754 528.842 545.683 528.766 545.608 528.655C545.533 528.543 545.485 528.441 545.458 528.372C545.434 528.308 545.439 528.301 545.454 528.383L555.297 526.618C555.085 525.434 554.675 524.214 553.897 523.062C553.126 521.919 552.174 521.112 551.258 520.506L545.742 528.847ZM545.454 528.383C545.499 528.632 545.543 529.175 545.503 530.326L555.497 530.674C555.544 529.323 555.532 527.93 555.297 526.618L545.454 528.383ZM240.678 532.5H550.375V522.5H240.678V532.5ZM189.5 439V477H199.5V439H189.5ZM193.856 486.396C194.517 487.042 204.904 497.317 215.154 507.459C220.273 512.524 225.35 517.548 229.147 521.305C231.046 523.184 232.624 524.746 233.728 525.839C234.28 526.385 234.713 526.814 235.009 527.106C235.156 527.252 235.269 527.364 235.346 527.44C235.384 527.477 235.413 527.506 235.432 527.525C235.442 527.535 235.449 527.542 235.454 527.547C235.456 527.549 235.458 527.551 235.459 527.552C235.46 527.553 235.46 527.553 235.461 527.554C235.461 527.554 235.461 527.554 238.978 524C242.495 520.446 242.495 520.446 242.495 520.446C242.495 520.445 242.494 520.445 242.494 520.444C242.492 520.443 242.491 520.441 242.488 520.439C242.483 520.434 242.476 520.427 242.466 520.417C242.447 520.398 242.418 520.37 242.38 520.332C242.304 520.256 242.19 520.144 242.043 519.998C241.747 519.706 241.314 519.277 240.762 518.731C239.658 517.638 238.079 516.076 236.181 514.197C232.384 510.44 227.307 505.416 222.188 500.351C211.963 490.234 201.536 479.919 200.846 479.244L193.856 486.396ZM189.5 477C189.5 482.177 192.37 484.944 193.856 486.396L200.846 479.244C200.138 478.553 199.883 478.264 199.717 477.986C199.624 477.829 199.5 477.584 199.5 477H189.5ZM238.498 0.525114C236.127 0.287873 234.45 0.110805 232.748 0.18819C231.046 0.265574 229.393 0.59405 227.053 1.04548L228.947 10.8644C231.541 10.3639 232.388 10.2149 233.202 10.1779C234.017 10.1408 234.873 10.2124 237.502 10.4754L238.498 0.525114ZM227.276 1.00763C218.079 2.35343 24.4812 38.0936 15.4098 40.1204L17.5903 49.8797C26.4193 47.9071 219.773 12.2121 228.724 10.9023L227.276 1.00763ZM229 21.5003C229 15.855 229.816 13.4737 230.724 12.3794C231.403 11.5599 232.981 10.5003 238 10.5003V0.500273C232.019 0.500273 226.597 1.69047 223.026 5.99597C219.684 10.0265 219 15.6452 219 21.5003H229ZM0.500031 57.0003L0.5 560L10.5 560L10.5 57.0003L0.500031 57.0003ZM15 575.5C18.4925 575.5 74.6071 575.625 129.864 575.75C157.489 575.813 184.895 575.875 205.395 575.922C215.645 575.945 224.168 575.965 230.129 575.979C233.11 575.985 235.45 575.991 237.044 575.994C237.842 575.996 238.453 575.998 238.864 575.999C239.07 575.999 239.226 575.999 239.331 576C239.383 576 239.423 576 239.449 576C239.462 576 239.472 576 239.479 576C239.482 576 239.484 576 239.486 576C239.488 576 239.489 576 239.5 571C239.512 566 239.511 566 239.509 566C239.507 566 239.505 566 239.502 566C239.495 566 239.485 566 239.472 566C239.446 566 239.406 566 239.354 566C239.249 566 239.093 565.999 238.887 565.999C238.476 565.998 237.865 565.996 237.067 565.994C235.472 565.991 233.133 565.985 230.152 565.979C224.191 565.965 215.668 565.945 205.418 565.922C184.918 565.875 157.511 565.813 129.886 565.75C74.643 565.625 18.5075 565.5 15 565.5V575.5ZM0.5 560C0.5 564.523 1.01819 569.089 4.08947 572.161C7.20064 575.272 11.6047 575.5 15 575.5V565.5C13.3645 565.5 12.3468 565.405 11.6868 565.253C11.0978 565.117 11.0686 564.998 11.1605 565.089C11.2397 565.169 11.054 565.056 10.857 564.25C10.6492 563.4 10.5 562.07 10.5 560H0.5ZM277.991 53.223C281.974 53.6214 486.571 71.9366 492.509 72.6783L493.749 62.7554C487.7 61.9998 282.495 43.6236 278.986 43.2727L277.991 53.223ZM492.509 72.6783C493.891 72.8508 494.717 73.0326 495.233 73.2135C495.689 73.3733 495.686 73.4576 495.588 73.3486C495.494 73.2436 495.607 73.2871 495.74 73.856C495.885 74.475 495.995 75.4709 495.995 77.077H505.995C505.995 73.4285 505.604 69.5384 503.032 66.6713C500.457 63.8003 496.723 63.1269 493.749 62.7554L492.509 72.6783ZM495.995 77.077V363.263H505.995V77.077H495.995ZM495.996 363.343C496.019 364.81 495.935 365.712 495.817 366.261C495.706 366.77 495.626 366.693 495.83 366.475C496.056 366.232 496.211 366.262 495.863 366.347C495.444 366.45 494.659 366.541 493.271 366.502L492.987 376.498C496.273 376.591 500.334 376.302 503.138 373.301C505.817 370.432 506.046 366.411 505.995 363.184L495.996 363.343ZM278.986 43.2727C277.242 43.0982 275.883 42.9525 274.497 43.0154C273.111 43.0784 271.771 43.3469 270.05 43.6788L271.943 53.4979C273.919 53.1169 274.452 53.0278 274.951 53.0051C275.45 52.9825 275.989 53.0228 277.991 53.223L278.986 43.2727ZM273 60.2288C273 56.0282 273.628 54.6522 274.002 54.2016C274.148 54.0252 274.849 53.2478 278.489 53.2478V43.2478C273.887 43.2478 269.344 44.1552 266.306 47.8163C263.496 51.2034 263 55.8179 263 60.2288H273ZM273 351.448V60.2288H263V351.448H273ZM493.129 371.5C493.242 366.501 493.241 366.501 493.24 366.501C493.238 366.501 493.236 366.501 493.233 366.501C493.227 366.501 493.218 366.501 493.206 366.5C493.183 366.5 493.147 366.499 493.1 366.498C493.006 366.496 492.865 366.493 492.68 366.489C492.31 366.48 491.759 366.468 491.041 366.452C489.605 366.419 487.498 366.372 484.811 366.311C479.437 366.191 471.747 366.018 462.482 365.811C443.952 365.396 419.119 364.844 393.913 364.291C343.559 363.188 291.557 362.08 285.498 362.08V372.08C291.412 372.08 343.225 373.183 393.694 374.289C418.898 374.841 443.729 375.394 462.259 375.808C471.523 376.015 479.213 376.188 484.586 376.309C487.273 376.369 489.38 376.417 490.816 376.449C491.534 376.465 492.084 376.478 492.455 376.486C492.64 376.49 492.78 376.493 492.874 376.496C492.921 376.497 492.957 376.497 492.98 376.498C492.992 376.498 493.001 376.498 493.007 376.499C493.01 376.499 493.012 376.499 493.014 376.499C493.015 376.499 493.016 376.499 493.129 371.5ZM263 351.448C263 359.216 264.318 365.504 269.395 369.052C271.775 370.716 274.499 371.403 277.082 371.732C279.647 372.058 282.549 372.08 285.498 372.08V362.08C282.461 362.08 280.182 362.045 278.344 361.812C276.524 361.58 275.621 361.204 275.124 360.856C274.444 360.381 273 358.853 273 351.448H263ZM318.582 173.958C327.182 168.681 333.009 161.5 337.766 154.025C340.134 150.304 342.28 146.439 344.349 142.689C346.441 138.898 348.452 135.23 350.645 131.685L342.14 126.425C339.79 130.224 337.652 134.128 335.594 137.858C333.512 141.63 331.507 145.235 329.329 148.656C324.994 155.468 320.151 161.263 313.352 165.435L318.582 173.958ZM350.645 131.685C351.98 129.526 353.623 126.982 355.49 124.798C357.442 122.514 359.168 121.193 360.502 120.748L357.339 111.261C353.386 112.579 350.202 115.594 347.889 118.3C345.491 121.105 343.513 124.205 342.14 126.425L350.645 131.685ZM314.285 129.439C315.294 129.799 316.681 130.721 318.425 132.246C320.184 133.785 321.622 135.297 323.296 136.89L330.189 129.646C328.967 128.483 326.948 126.415 325.009 124.719C323.054 123.009 320.501 121.04 317.649 120.021L314.285 129.439ZM323.296 136.89C327.746 141.125 331.245 146.244 333.764 151.953L342.913 147.917C339.903 141.094 335.668 134.86 330.189 129.646L323.296 136.89ZM333.764 151.953C334.007 152.503 334.259 153.256 334.654 154.43C335.012 155.497 335.464 156.839 336.03 158.151C337.044 160.499 339.049 164.316 343.245 165.715L346.408 156.228C346.611 156.296 346.087 156.216 345.212 154.188C344.834 153.312 344.503 152.347 344.134 151.249C343.802 150.258 343.385 148.987 342.913 147.917L333.764 151.953ZM421.408 177.326C424.029 176.933 426.363 175.724 428.29 174.401C430.246 173.058 432.063 171.402 433.672 169.767C435.29 168.122 436.8 166.393 438.11 164.863C439.475 163.27 440.536 161.999 441.448 161.014L434.113 154.218C433.025 155.392 431.741 156.927 430.516 158.358C429.235 159.852 427.909 161.366 426.544 162.753C425.169 164.151 423.854 165.317 422.63 166.157C421.377 167.017 420.483 167.353 419.925 167.437L421.408 177.326ZM441.448 161.014C449.763 152.04 458.257 142.846 466.137 133.278L458.418 126.92C450.752 136.229 442.452 145.217 434.113 154.218L441.448 161.014ZM423.783 133.574C424.548 138.356 426.791 142.811 429.232 146.623C431.688 150.457 434.587 154 436.924 156.863L444.671 150.539C442.28 147.61 439.749 144.501 437.653 141.229C435.542 137.934 434.111 134.827 433.657 131.994L423.783 133.574ZM436.924 156.863L437.077 157.049L444.823 150.726L444.671 150.539L436.924 156.863ZM437.076 157.049C439.509 160.029 442.512 163.993 445.703 167.483C448.936 171.02 452.784 174.567 457.357 176.854L461.829 167.909C458.858 166.424 455.985 163.91 453.083 160.736C450.139 157.515 447.592 154.118 444.823 150.726L437.076 157.049ZM299.244 301.096C300.851 300.366 302.08 299.18 302.928 298.221C303.828 297.203 304.627 296.057 305.302 294.997C306.576 292.993 307.861 290.522 308.414 289.554L299.732 284.593C298.815 286.196 297.997 287.848 296.864 289.63C296.334 290.464 295.852 291.127 295.436 291.598C294.968 292.127 294.846 292.11 295.106 291.992L299.244 301.096ZM308.414 289.554C309.866 287.012 311.191 284.389 312.44 281.982C313.717 279.523 314.945 277.224 316.317 275.053L307.862 269.713C306.249 272.266 304.857 274.886 303.564 277.376C302.244 279.92 301.053 282.279 299.732 284.593L308.414 289.554ZM316.317 275.053C316.424 274.882 316.237 275.262 315.583 275.57C314.825 275.929 314.044 275.908 313.514 275.756C313.097 275.636 312.975 275.481 313.147 275.625C313.295 275.75 313.54 275.994 313.864 276.401C315.266 278.16 316.557 280.864 317.084 281.987L326.138 277.742C325.677 276.758 323.932 272.989 321.683 270.168C320.677 268.906 318.855 266.886 316.274 266.144C314.766 265.711 313.015 265.724 311.314 266.527C309.718 267.281 308.617 268.517 307.862 269.713L316.317 275.053ZM317.084 281.988L317.108 282.038L326.161 277.791L326.138 277.741L317.084 281.988ZM317.108 282.038C319.217 286.533 321.767 290.892 323.965 294.889L332.727 290.07C330.352 285.752 328.089 281.899 326.161 277.791L317.108 282.038ZM323.965 294.889C323.948 294.858 323.962 294.88 324.019 295.013C324.089 295.173 324.127 295.269 324.242 295.544C324.382 295.878 324.757 296.798 325.372 297.626C326.022 298.504 327.665 300.211 330.387 300.07C332.652 299.952 334.163 298.568 334.853 297.852L327.655 290.911C327.618 290.949 327.75 290.8 328.053 290.618C328.364 290.431 328.99 290.129 329.869 290.083C331.988 289.973 333.157 291.337 333.402 291.668C333.612 291.95 333.65 292.121 333.463 291.675C333.378 291.473 333.077 290.706 332.727 290.07L323.965 294.889ZM334.853 297.852C337.084 295.539 338.624 292.55 339.785 290.148C341.088 287.45 341.942 285.452 342.997 283.803L334.575 278.412C333.092 280.73 331.799 283.69 330.78 285.798C329.62 288.201 328.663 289.865 327.655 290.911L334.853 297.852ZM342.997 283.803C344.474 281.496 345.451 279.535 347.048 277.399C348.646 275.262 349.669 274.723 350.046 274.655L348.257 264.816C343.878 265.612 340.863 268.971 339.039 271.411C337.215 273.85 335.387 277.143 334.575 278.412L342.997 283.803ZM350.046 274.655C349.529 274.749 349.042 274.683 348.671 274.554C348.501 274.495 348.378 274.43 348.303 274.386C348.265 274.363 348.238 274.344 348.221 274.332C348.203 274.319 348.195 274.312 348.194 274.312C348.194 274.312 348.201 274.317 348.214 274.33C348.228 274.343 348.247 274.362 348.272 274.388C348.321 274.44 348.386 274.515 348.466 274.615C348.628 274.82 348.816 275.091 349.029 275.436C349.463 276.141 349.881 276.959 350.32 277.85C350.677 278.574 351.213 279.701 351.698 280.476L360.178 275.176C360.039 274.954 359.817 274.497 359.289 273.426C358.842 272.521 358.246 271.331 357.542 270.19C356.869 269.097 355.902 267.719 354.598 266.631C353.247 265.505 351.038 264.31 348.257 264.816L350.046 274.655ZM351.698 280.476C351.923 280.838 352.314 281.694 353.106 283.374C353.777 284.797 354.666 286.639 355.661 288.201C356.158 288.982 356.785 289.861 357.544 290.631C358.237 291.334 359.476 292.399 361.254 292.794C363.413 293.275 365.433 292.577 366.887 291.267C368.113 290.162 368.841 288.732 369.316 287.522L360.009 283.865C359.772 284.469 359.747 284.24 360.194 283.837C360.869 283.229 362.083 282.734 363.425 283.033C364.387 283.247 364.798 283.745 364.665 283.611C364.599 283.544 364.404 283.315 364.097 282.832C363.482 281.866 362.832 280.554 362.151 279.109C361.591 277.921 360.815 276.196 360.178 275.176L351.698 280.476ZM369.316 287.522C370.529 284.435 372.141 280.843 374.177 277.761C376.267 274.596 378.437 272.534 380.539 271.693L376.825 262.408C371.952 264.358 368.376 268.399 365.833 272.25C363.235 276.183 361.324 280.518 360.009 283.865L369.316 287.522ZM380.539 271.693C381.01 271.505 381.191 271.447 381.256 271.43C381.294 271.42 381.004 271.504 380.538 271.454C380.299 271.429 380.055 271.372 379.821 271.285C379.589 271.199 379.41 271.098 379.286 271.016C379.061 270.866 379.039 270.789 379.22 271.009L386.944 264.658C385.852 263.33 384.164 261.786 381.604 261.511C379.505 261.286 377.629 262.087 376.825 262.408L380.539 271.693ZM379.22 271.009C383.313 275.988 386.284 281.514 389.864 287.71L398.523 282.708C395.169 276.904 391.699 270.441 386.944 264.658L379.22 271.009ZM389.864 287.71C390.596 288.977 391.1 290.306 391.92 292.249C392.668 294.021 393.658 296.234 395.243 298.271L403.136 292.132C402.413 291.202 401.84 290.035 401.133 288.362C400.499 286.859 399.66 284.676 398.523 282.708L389.864 287.71ZM395.243 298.271C395.817 299.009 396.603 299.971 397.536 300.683C398.489 301.41 400.964 302.837 403.808 301.359C404.893 300.795 405.568 300.002 405.943 299.48C406.331 298.941 406.606 298.396 406.796 297.981C407.165 297.174 407.503 296.193 407.799 295.326L398.336 292.095C398.004 293.066 397.825 293.554 397.701 293.824C397.645 293.947 397.68 293.843 397.823 293.645C397.953 293.463 398.378 292.911 399.198 292.485C400.157 291.987 401.233 291.88 402.19 292.099C402.995 292.283 403.483 292.642 403.604 292.735C403.795 292.88 403.69 292.844 403.136 292.132L395.243 298.271ZM407.799 295.326C408.54 293.155 409.223 290.606 409.89 288.205C410.58 285.722 411.286 283.267 412.131 280.946C413.896 276.1 415.906 272.919 418.363 271.467L413.275 262.858C407.646 266.184 404.643 272.286 402.735 277.524C401.744 280.246 400.948 283.032 400.255 285.529C399.539 288.107 398.957 290.275 398.336 292.095L407.799 295.326ZM418.363 271.467C420.651 270.115 421.132 270.602 420.793 270.466C420.631 270.4 421.288 270.584 422.213 272.897L431.498 269.183C430.272 266.117 428.248 262.685 424.524 261.188C420.624 259.619 416.662 260.857 413.275 262.858L418.363 271.467ZM422.213 272.897C425.625 281.426 431.261 291.987 438.235 298.961L445.306 291.89C439.704 286.289 434.684 277.148 431.498 269.183L422.213 272.897ZM438.235 298.961C438.873 299.599 439.852 300.291 441.187 300.551C442.555 300.817 443.776 300.53 444.688 300.093C446.237 299.35 447.125 298.076 447.495 297.509C448.378 296.16 449.073 294.384 449.571 292.991C450.108 291.494 450.607 289.881 450.988 288.678C451.188 288.048 451.349 287.548 451.482 287.167C451.654 286.675 451.666 286.719 451.535 286.952L442.819 282.049C442.459 282.689 442.192 283.44 442.042 283.866C441.854 284.404 441.652 285.034 441.455 285.658C441.042 286.961 440.614 288.344 440.157 289.62C439.663 291 439.299 291.772 439.128 292.034C438.971 292.273 439.332 291.57 440.365 291.075C441.018 290.762 441.983 290.518 443.099 290.735C444.182 290.946 444.912 291.496 445.306 291.89L438.235 298.961ZM451.535 286.952C453.574 283.326 454.634 279.125 455.543 275.963C456.54 272.49 457.419 269.955 458.858 268.037L450.858 262.037C448.186 265.599 446.906 269.807 445.931 273.202C444.867 276.907 444.142 279.698 442.819 282.049L451.535 286.952ZM458.858 268.037C459.062 267.765 458.992 267.96 458.557 268.179C458.019 268.449 457.307 268.56 456.614 268.405C456.034 268.276 455.762 268.027 455.803 268.062C455.835 268.088 455.988 268.232 456.249 268.582C456.785 269.302 457.367 270.33 458.027 271.602C458.585 272.678 459.344 274.227 459.978 275.272L468.53 270.089C468.124 269.42 467.683 268.497 466.902 266.994C466.224 265.687 465.328 264.03 464.269 262.609C463.369 261.401 461.578 259.266 458.789 258.645C455.178 257.84 452.448 259.917 450.858 262.037L458.858 268.037ZM459.978 275.272C460.481 276.103 461.077 277.35 461.882 279.088C462.638 280.719 463.536 282.689 464.533 284.58C465.524 286.462 466.72 288.479 468.157 290.211C469.564 291.905 471.514 293.708 474.119 294.576L477.282 285.089C477.176 285.054 476.677 284.818 475.851 283.823C475.056 282.865 474.235 281.543 473.38 279.919C472.53 278.306 471.753 276.605 470.956 274.885C470.209 273.272 469.377 271.487 468.53 270.089L459.978 275.272ZM485.204 395.452C483.234 395.452 481.258 395.942 479.577 397.208C477.921 398.456 477.031 400.097 476.547 401.531C475.689 404.07 475.794 407.111 475.794 408.607H485.794C485.794 407.59 485.786 406.808 485.831 406.057C485.876 405.307 485.961 404.909 486.021 404.73C486.068 404.591 485.995 404.893 485.594 405.195C485.169 405.516 484.887 405.452 485.204 405.452V395.452ZM475.794 408.607C475.794 410.241 476.239 411.908 477.306 413.335C478.36 414.744 479.764 415.575 481.108 416.005C483.651 416.817 486.321 416.35 488.344 415.456L484.303 406.309C484.14 406.381 483.995 406.413 483.911 406.421C483.813 406.431 483.909 406.401 484.153 406.479C484.424 406.566 484.909 406.804 485.313 407.344C485.73 407.902 485.794 408.423 485.794 408.607H475.794ZM488.344 415.456C491.449 414.084 492.75 411.278 493.305 409.423C493.885 407.484 493.984 405.52 493.984 404.232H483.984C483.984 404.642 483.966 405.08 483.92 405.506C483.873 405.939 483.803 406.294 483.724 406.559C483.642 406.835 483.585 406.89 483.635 406.821C483.705 406.722 483.918 406.479 484.303 406.309L488.344 415.456ZM493.984 404.232C493.984 401.793 492.973 398.556 489.588 397.36L486.254 406.787C485.348 406.467 484.668 405.832 484.292 405.147C483.961 404.545 483.984 404.135 483.984 404.232H493.984ZM489.588 397.36C486.759 396.359 484.118 397.544 482.684 398.888C481.889 399.633 480.967 400.868 480.723 402.582C480.448 404.525 481.156 406.346 482.438 407.628L489.509 400.557C490.281 401.328 490.823 402.587 490.624 403.987C490.458 405.159 489.856 405.872 489.521 406.185C489.156 406.528 488.741 406.754 488.294 406.879C487.845 407.003 487.11 407.09 486.254 406.787L489.588 397.36ZM482.438 407.628C483.605 408.795 485.44 409.66 487.573 409.26C489.384 408.922 490.54 407.822 491.124 407.118C492.295 405.707 492.894 403.848 492.92 402.152L482.922 401.995C482.927 401.648 483.001 401.248 483.428 400.733C483.64 400.478 484.37 399.686 485.734 399.431C487.422 399.115 488.792 399.839 489.509 400.557L482.438 407.628ZM492.92 402.152C492.938 401.043 492.716 399.381 491.558 397.884C490.243 396.184 488.313 395.452 486.464 395.452V405.452C486.14 405.452 485.646 405.393 485.087 405.141C484.512 404.88 484.018 404.481 483.647 404.001C482.951 403.101 482.918 402.25 482.922 401.995L492.92 402.152ZM417.136 410.657C416.983 410.779 416.982 410.729 417.317 410.618C417.631 410.514 418.075 410.412 418.66 410.323C419.92 410.131 421.084 410.094 422.453 409.987L421.672 400.018C420.819 400.084 418.897 400.172 417.157 400.436C415.541 400.682 412.93 401.215 410.889 402.848L417.136 410.657ZM422.453 409.987C426.012 409.709 429.647 409.714 433.462 409.771C437.209 409.828 441.208 409.937 445.164 409.825L444.882 399.829C441.207 399.933 437.533 399.831 433.612 399.773C429.758 399.715 425.728 399.7 421.672 400.018L422.453 409.987ZM445.164 409.825C445.746 409.809 446.39 409.709 446.786 409.645C447.27 409.567 447.842 409.464 448.414 409.361C449.602 409.148 450.917 408.911 452.194 408.733C453.52 408.549 454.541 408.469 455.176 408.492C455.51 408.505 455.459 408.538 455.196 408.453C455.02 408.396 453.763 407.973 453.011 406.468L461.955 401.996C460.959 400.004 459.182 399.232 458.275 398.939C457.28 398.617 456.288 398.526 455.538 398.499C454.003 398.443 452.279 398.626 450.819 398.828C449.309 399.038 447.795 399.312 446.644 399.519C445.21 399.777 444.81 399.831 444.882 399.829L445.164 409.825ZM282.499 408.783C281.824 410.301 280.579 410.522 280.926 410.424C281.1 410.375 281.576 410.298 282.43 410.283C283.23 410.269 284.103 410.31 284.98 410.365C285.698 410.41 286.762 410.492 287.45 410.492V400.492C287.178 400.492 286.696 400.453 285.604 400.385C284.671 400.326 283.47 400.263 282.254 400.285C281.093 400.305 279.611 400.404 278.207 400.801C276.976 401.148 274.533 402.085 273.361 404.722L282.499 408.783ZM287.45 410.492C289.763 410.492 292.016 410.336 294.087 410.186C296.211 410.033 298.131 409.889 300.05 409.862L299.911 399.863C297.642 399.894 295.407 400.065 293.367 400.212C291.274 400.363 289.356 400.492 287.45 400.492V410.492ZM300.05 409.862C304.037 409.807 308.071 409.646 311.995 409.503C315.947 409.359 319.805 409.232 323.571 409.232V399.232C319.603 399.232 315.583 399.366 311.631 399.51C307.652 399.655 303.757 399.809 299.911 399.863L300.05 409.862ZM323.571 409.232H347.861V399.232H323.571V409.232ZM347.861 409.232C355.861 409.232 362.59 408.474 369.177 409.645L370.927 399.8C363.19 398.424 354.417 399.232 347.861 399.232V409.232ZM369.177 409.645C372.033 410.153 375.416 409.783 377.359 409.674C379.874 409.533 380.982 409.688 381.536 409.965L386.008 401.02C382.793 399.413 379.148 399.558 376.798 399.69C373.876 399.854 372.283 400.041 370.927 399.8L369.177 409.645Z"
        fill="currentColor"/>
</svg>
